# File produced by Open Asset Import Library (http://www.assimp.sf.net)
# (assimp v3.1.243586452)

mtllib %D1%81%D0%BEntrol%20point.mtl

# vertex positions
v 42.836525 139.372986 108.207703
v 42.836525 139.372940 -200.064941
v -108.207726 191.470276 -200.064957
v -108.207726 191.470322 108.207687
v -108.207726 166.437515 108.207687
v 42.836525 122.419739 108.207703
v -108.207726 166.437469 -200.064957
v -100.000000 3.458443 100.000000
v -100.000000 3.458397 -191.857193
v 34.628792 3.458397 -191.857193
v 34.628792 3.458443 100.000000
v 42.836525 122.419693 -200.064941
v 34.628792 119.206825 -191.857208
v -100.000000 157.896210 -191.857224
v 34.628792 119.206871 99.999985
v -100.000000 157.896255 99.999985

# UV coordinates
vt 0.212236 0.731058
vt 0.212236 0.268942
vt 0.451749 0.268942
vt 0.451749 0.731058
vt 0.439513 0.766533
vt 0.203949 0.755082
vt 0.489275 0.268942
vt 0.489274 0.731058
vt 0.738542 0.718754
vt 0.738542 0.281245
vt 0.940357 0.281246
vt 0.940357 0.718754
vt 0.186823 0.731058
vt 0.186823 0.268942
vt 0.203950 0.244917
vt 0.439514 0.233467
vt 0.213687 0.229714
vt 0.423401 0.219077
vt 0.173610 0.718754
vt 0.173610 0.281245
vt 0.507032 0.281245
vt 0.507032 0.718754
vt 0.423401 0.780923
vt 0.213687 0.770286
vt 0.348269 0.999903
vt 0.157377 0.934408
vt 0.000097 0.718754
vt 0.000097 0.281245
vt 0.157377 0.065593
vt 0.348269 0.000097

# vertex normals
vn 0.326064 0.945348 -0.000000
vn 0.000000 0.000000 1.000000
vn -1.000000 0.000000 0.000000
vn 0.000000 -1.000000 0.000000
vn 1.000000 0.000000 0.000000
vn 0.000000 -0.000000 -1.000000
vn -0.229132 -0.791427 -0.566694
vn 0.364512 -0.931199 0.000000
vn -0.721045 -0.692889 0.000000
vn -0.229131 -0.791427 0.566694

# Mesh
g Cube
usemtl Material
f 1/1/1 2/2/1 3/3/1 4/4/1
f 6/6/2 1/1/2 4/4/2 5/5/2
f 4/4/3 3/3/3 7/7/3 5/8/3
f 10/11/4 11/12/4 8/9/4 9/10/4
f 2/2/5 1/1/5 6/13/5 12/14/5
f 2/2/6 12/15/6 7/16/6 3/3/6
f 12/15/7 13/17/7 14/18/7 7/16/7
f 12/14/8 6/13/8 15/19/8 13/20/8
f 14/21/9 16/22/9 5/8/9 7/7/9
f 15/24/10 6/6/10 5/5/10 16/23/10
f 11/26/2 15/24/2 16/23/2 8/25/2
f 16/22/3 14/21/3 9/10/3 8/9/3
f 13/20/5 15/19/5 11/27/5 10/28/5
f 13/17/6 10/29/6 9/30/6 14/18/6
